<svg xmlns="http://www.w3.org/2000/svg" xmlns:xlink="http://www.w3.org/1999/xlink" width="105" height="90" viewBox="0 0 105 90">
    <defs>
        <path id="a" d="M.433.33h4.576v13.583H.433z"/>
        <path id="c" d="M0 60.558h65.567V.991H0z"/>
    </defs>
    <g fill="none" fill-rule="evenodd">
        <circle cx="45" cy="45" r="45" fill="#E7FAF5"/>
        <path fill="#391572" d="M52 61h40V14H52v47zm1.432-1.449h37.136V15.45H53.432V59.55z"/>
        <path fill="#391572" d="M56.436 29.556h30.128V19.444H56.436v10.112zM55 31h33V18H55v13zM57.348 38.65h3.301v-3.3h-3.3v3.3zM56 40h6v-6h-6v6zM57.348 46.65h3.301v-3.3h-3.3v3.3zM56 48h6v-6h-6v6zM57.348 55.65h3.301v-3.3h-3.3v3.3zM56 57h6v-6h-6v6zM65.35 38.65h3.302v-3.3h-3.301v3.3zM64 40h6v-6h-6v6zM65.35 46.65h3.302v-3.3h-3.301v3.3zM64 48h6v-6h-6v6zM65.35 55.65h3.302v-3.3h-3.301v3.3zM64 57h6v-6h-6v6zM74.35 38.65h3.3v-3.3h-3.3v3.3zM73 40h6v-6h-6v6zM74.35 46.65h3.3v-3.3h-3.3v3.3zM73 48h6v-6h-6v6zM74.35 55.65h3.3v-3.3h-3.3v3.3zM73 57h6v-6h-6v6zM82.35 38.65h3.3v-3.3h-3.3v3.3zM81 40h6v-6h-6v6zM82.35 55.562h3.3V43.438h-3.3v12.124zM81 57h6V42h-6v15z"/>
        <path fill="#391572" d="M82.56 25H84v-1h-1.44v1zm-3.313 0h1.441v-1h-1.441v1zm-3.311 0h1.44v-1h-1.44v1zm-3.313 0h1.44v-1h-1.44v1zm-3.311 0h1.44v-1h-1.44v1zM66 25h1.44v-1H66v1z"/>
        <g transform="translate(39 13)">
            <path fill="#391572" d="M56.902 2.463l.199 27.108.036 18.157 4.09-.027-.233-45.266-4.092.028zm-.484 46.71a.72.72 0 0 1-.721-.72l-.038-18.875-.203-27.826a.72.72 0 0 1 .715-.727l5.535-.034h.005a.72.72 0 0 1 .72.716l.243 46.706a.721.721 0 0 1-.717.726l-5.535.034h-.004z"/>
            <g transform="translate(60.558 3.884)">
                <mask id="b" fill="#fff">
                    <use xlink:href="#a"/>
                </mask>
                <path fill="#391572" d="M.527 13.913L.433.358 4.916.329l.093 13.554-1.442.011L3.484 1.78l-1.6.011.084 12.11z" mask="url(#b)"/>
            </g>
            <path fill="#391572" d="M56.358 30.963l-.01-1.441 5.534-.035.01 1.442z"/>
            <path fill="#391572" d="M58.4 30.223l-.178-28.49 1.442-.009.177 28.49zM57.688 49.165l1.535 2.685 1.5-2.703-3.035.018zm1.545 4.875a.72.72 0 0 1-.626-.363l-2.783-4.866a.721.721 0 0 1 .622-1.079l5.502-.036h.004a.72.72 0 0 1 .63 1.071l-2.72 4.901a.723.723 0 0 1-.625.372h-.004z"/>
            <path fill="#391572" d="M59.232 55.565a.721.721 0 0 1-.72-.72v-1.526a.721.721 0 0 1 1.441 0v1.525c0 .398-.323.721-.72.721M48.629 60.558H0v-48.63l14.067 14.069-1.02 1.02L1.443 15.41v43.705h43.705L33.58 47.548l1.02-1.02z"/>
            <path fill="#391572" d="M28.895 52.384H8.174v-20.72l5.894 5.895-1.02 1.02-3.432-3.435v15.798h15.798l-3.244-3.244 1.02-1.02z"/>
            <mask id="d" fill="#fff">
                <use xlink:href="#c"/>
            </mask>
            <path fill="#391572" d="M4.983 59.837h1.442v-3.175H4.983zM9.968 59.837h1.441v-3.175H9.968zM14.95 59.837h1.443v-3.175H14.95zM19.934 59.837h1.442v-3.175h-1.442zM24.917 59.837h1.442v-3.175h-1.442zM29.9 59.837h1.442v-3.175H29.9zM34.883 59.837h1.442v-3.175h-1.442zM39.867 59.837h1.442v-3.175h-1.442z" mask="url(#d)"/>
        </g>
    </g>
</svg>
