<svg xmlns="http://www.w3.org/2000/svg" xmlns:xlink="http://www.w3.org/1999/xlink" width="102" height="90" viewBox="0 0 102 90">
    <defs>
        <path id="a" d="M0 60.988h57.178V0H0z"/>
    </defs>
    <g fill="none" fill-rule="evenodd">
        <circle cx="45" cy="45" r="45" fill="#E7FAF5"/>
        <g transform="translate(44 17)">
            <path fill="#391572" d="M38.697 52.263h14.378v-3.358c0-.86.348-1.702.957-2.308a2.328 2.328 0 0 0 .682-1.65v-5.413a2.341 2.341 0 0 0-1.687-2.24l-8.392-2.418a3.25 3.25 0 0 1-2.34-3.11v-7.333a1.8 1.8 0 0 0-1.8-1.798 1.8 1.8 0 0 0-1.798 1.798v17.954l-4.362-5.818c-.243-.324-.601-.52-1.008-.549-.416-.04-.787.115-1.075.401a1.388 1.388 0 0 0-.219 1.67l6.664 11.552v2.62zm16.445 2.068H36.63v-4.136l-6.388-11.073a3.457 3.457 0 0 1 .547-4.16 3.446 3.446 0 0 1 5.198.369l.643.856V24.433a3.869 3.869 0 0 1 3.864-3.865 3.87 3.87 0 0 1 3.866 3.865v7.333c0 .52.347.981.845 1.123l8.393 2.418a4.42 4.42 0 0 1 3.182 4.227v5.413c0 1.175-.458 2.28-1.288 3.11a1.2 1.2 0 0 0-.351.848v5.426z"/>
            <mask id="b" fill="#fff">
                <use xlink:href="#a"/>
            </mask>
            <path fill="#391572" d="M36.313 58.92h18.799v-4.59h-18.8v4.59zm-2.067 2.068h22.932v-8.725H34.246v8.725z" mask="url(#b)"/>
            <path fill="#391572" d="M30.814 57.66H0V0h55.587v28.83h-2.065V2.066H2.067v53.524h28.747z" mask="url(#b)"/>
            <path fill="#391572" d="M29.914 19.025h18.812v-2.068H29.914zM29.914 24.424h4.173v-2.069h-4.173zM29.914 29.822h4.173v-2.068h-4.173zM1.033 10.679h53.522V8.61H1.033zM12.09 6.374h2.067V4.369H12.09zM8.112 6.405h2.005V4.337H8.112zM4.103 6.405h2.005V4.337H4.103zM8.217 29.31h13.036V16.276H8.217V29.31zM6.151 31.38H23.32V14.208H6.15v17.17zM8.217 49.446h13.036V36.412H8.217v13.034zm-2.066 2.068H23.32v-17.17H6.15v17.17z" mask="url(#b)"/>
            <path fill="#391572" d="M13.718 26.734l-3.653-3.653 1.46-1.463 2.193 2.194 4.67-4.67 1.461 1.46zM26.263 6.405h22.463V4.337H26.263z" mask="url(#b)"/>
        </g>
    </g>
</svg>
