<svg xmlns="http://www.w3.org/2000/svg" xmlns:xlink="http://www.w3.org/1999/xlink" width="95" height="90" viewBox="0 0 95 90">
    <defs>
        <path id="a" d="M0 61.87h56.098V0H0z"/>
    </defs>
    <g fill="none" fill-rule="evenodd">
        <circle cx="45" cy="45" r="45" fill="#E7FAF5"/>
        <g transform="translate(38 13)">
            <path fill="#391572" d="M36.362 53.479h-1.378v-2.96c0-4.513 1.546-8.685 4.351-11.746 2.516-2.745 3.902-6.366 3.902-10.196 0-4.274-1.704-8.232-4.8-11.146-3.076-2.896-7.111-4.346-11.353-4.094-7.652.462-13.894 6.862-14.21 14.568-.165 4.042 1.177 7.864 3.776 10.764 2.862 3.193 4.438 7.275 4.438 11.496v3.314H19.71v-3.314c0-3.88-1.45-7.637-4.087-10.575-2.84-3.17-4.304-7.338-4.125-11.742.343-8.404 7.152-15.383 15.503-15.886 4.63-.292 9.026 1.307 12.38 4.464a16.75 16.75 0 0 1 5.234 12.151c0 4.175-1.515 8.126-4.265 11.127-2.572 2.807-3.988 6.648-3.988 10.816v2.959zM36.362 61.87H19.71v-1.378h11.652L19.71 57.47v-1.475h16.652v1.377H24.824l11.538 2.993z"/>
            <mask id="b" fill="#fff">
                <use xlink:href="#a"/>
            </mask>
            <path fill="#391572" d="M27.36 7.578h1.378V0H27.36zM19.579 9.4l-2.9-7.001 1.273-.528 2.9 7zM13.087 14.06L7.729 8.702l.974-.974 5.358 5.358zM8.873 20.851L1.87 17.952l.528-1.273L9.4 19.578zM53.7 39.419l-7-2.9.526-1.272 7.001 2.899zM0 28.738h7.58V27.36H0zM48.52 28.738h7.578V27.36H48.52zM2.399 39.419l-.528-1.273 7.002-2.9.528 1.274zM47.226 20.851l-.528-1.273 7.002-2.899.526 1.273zM43.012 14.06l-.974-.974 5.358-5.358.974.974zM36.52 9.4l-1.273-.528 2.9-7 1.273.527zM25.58 37.072c.155.039.312.075.47.103.157.032.314.058.473.08l1.338-2.267.36-.025a6.712 6.712 0 0 0 1.675-.336l.341-.116 2.117 1.56c.285-.17.558-.353.82-.552l-.655-2.544.237-.273c.376-.431.694-.915.948-1.436l.16-.325 2.604-.394c.04-.158.075-.318.106-.48.031-.162.058-.322.08-.484l-2.268-1.338-.025-.361a6.685 6.685 0 0 0-.344-1.685l-.12-.343 1.558-2.115a9.173 9.173 0 0 0-.554-.819l-2.547.659-.273-.237a6.643 6.643 0 0 0-1.428-.938l-.325-.157-.394-2.603a8.903 8.903 0 0 0-.942-.182l-1.338 2.267-.361.026c-.576.04-1.14.153-1.675.336l-.34.116-2.118-1.56a8.691 8.691 0 0 0-.82.551l.656 2.545-.237.273a6.561 6.561 0 0 0-.95 1.434l-.158.326-2.604.395a8.457 8.457 0 0 0-.187.964l2.269 1.34.025.36a6.57 6.57 0 0 0 .344 1.682l.12.343-1.56 2.115c.168.281.354.556.555.819l2.548-.657.273.235c.428.372.908.686 1.426.937l.326.159.394 2.602zm1.681 1.641l-.432-.037c-.346-.03-.695-.08-1.043-.146a10.959 10.959 0 0 1-1.017-.252l-.419-.126-.419-2.769a7.95 7.95 0 0 1-1.116-.733l-2.711.699-.279-.333c-.46-.548-.86-1.14-1.194-1.76l-.207-.385 1.66-2.251a7.75 7.75 0 0 1-.27-1.321l-2.413-1.424.038-.432a10.282 10.282 0 0 1 .402-2.083l.126-.42 2.772-.417c.216-.395.466-.773.744-1.125l-.697-2.71.333-.279a10.47 10.47 0 0 1 1.765-1.187l.384-.206 2.255 1.663a8.025 8.025 0 0 1 1.307-.264l1.423-2.413.436.042a10.326 10.326 0 0 1 2.06.4l.416.125.418 2.768a7.89 7.89 0 0 1 1.115.731l2.711-.697.28.332c.458.546.86 1.138 1.193 1.76l.207.384-1.659 2.251c.127.431.218.874.27 1.323l2.414 1.424-.039.434a10.604 10.604 0 0 1-.403 2.082l-.126.416-2.772.42a7.917 7.917 0 0 1-.744 1.125l.699 2.709-.335.278c-.544.453-1.138.853-1.766 1.189l-.383.204-2.253-1.662c-.426.124-.864.211-1.309.263l-1.422 2.41z" mask="url(#b)"/>
            <path fill="#391572" d="M27.757 26.824a1.538 1.538 0 0 0 0 3.073 1.54 1.54 0 0 0 1.537-1.537c0-.848-.69-1.536-1.537-1.536m0 4.451a2.919 2.919 0 0 1-2.914-2.915 2.918 2.918 0 0 1 2.914-2.914 2.918 2.918 0 0 1 2.915 2.914 2.92 2.92 0 0 1-2.915 2.915" mask="url(#b)"/>
        </g>
    </g>
</svg>
