<svg xmlns="http://www.w3.org/2000/svg" xmlns:xlink="http://www.w3.org/1999/xlink" width="105" height="90" viewBox="0 0 105 90">
    <defs>
        <path id="a" d="M0 .62h45.03v48.934H0z"/>
    </defs>
    <g fill="none" fill-rule="evenodd">
        <circle cx="45" cy="45" r="45" fill="#E7FAF5"/>
        <g transform="translate(30 23.047)">
            <mask id="b" fill="#fff">
                <use xlink:href="#a"/>
            </mask>
            <path fill="#391572" d="M5.093 2.287a3.43 3.43 0 0 0-3.427 3.426v26.704a3.43 3.43 0 0 0 3.427 3.425h3.163c.462 0 .833.373.833.833V46.4l8.46-10.255a.83.83 0 0 1 .642-.303h21.745a3.43 3.43 0 0 0 3.427-3.425V5.713a3.43 3.43 0 0 0-3.427-3.426H5.093zm3.163 47.267a.837.837 0 0 1-.833-.833V37.507h-2.33a5.098 5.098 0 0 1-5.094-5.091V5.713A5.1 5.1 0 0 1 5.093.62h34.843a5.1 5.1 0 0 1 5.093 5.093v26.704a5.098 5.098 0 0 1-5.093 5.091H18.584L8.9 49.25a.835.835 0 0 1-.643.303z" mask="url(#b)"/>
        </g>
        <path fill="#391572" d="M96.606 83.047a.833.833 0 0 1-.643-.304l-8.542-10.355H69a4.608 4.608 0 0 1-4.604-4.603v-4.868h1.667v4.868A2.94 2.94 0 0 0 69 70.722h18.815a.83.83 0 0 1 .641.303l7.317 8.868v-8.338c0-.46.373-.833.833-.833h3.567a2.94 2.94 0 0 0 2.935-2.937v-23.66a2.938 2.938 0 0 0-2.935-2.935H77.256v-1.667h22.917a4.608 4.608 0 0 1 4.602 4.602v23.66a4.608 4.608 0 0 1-4.602 4.603H97.44v9.825a.837.837 0 0 1-.834.834M51.893 53.105c.413.023.831.023 1.241 0l1.106-3.103.421-.114a8.363 8.363 0 0 0 1.984-.814l.378-.217 2.975 1.413c.318-.283.618-.583.903-.9L59.49 46.4l.219-.38c.362-.627.64-1.296.827-1.995l.113-.423 3.107-1.104a11.443 11.443 0 0 0 0-1.27l-3.107-1.105-.113-.421a8.256 8.256 0 0 0-.827-1.995l-.218-.38 1.411-2.97a11.528 11.528 0 0 0-.903-.902l-2.975 1.415-.378-.217a8.294 8.294 0 0 0-1.984-.815l-.421-.113-1.105-3.103c-.41-.024-.829-.024-1.242 0l-1.103 3.103-.424.113a8.298 8.298 0 0 0-1.981.815l-.38.217-2.974-1.415c-.32.285-.621.585-.905.902l1.412 2.97-.218.38a8.386 8.386 0 0 0-.827 1.995l-.115.422-3.105 1.105a11.49 11.49 0 0 0 0 1.268l3.105 1.105.115.422a8.37 8.37 0 0 0 .826 1.996l.219.38-1.412 2.97c.284.315.585.617.905.9l2.974-1.413.38.217a8.298 8.298 0 0 0 1.981.815l.424.113 1.103 3.103zm.622 1.683c-.442 0-.877-.021-1.309-.064l-.525-.054-1.173-3.297a9.848 9.848 0 0 1-1.564-.643l-3.16 1.503-.408-.331a13.154 13.154 0 0 1-1.882-1.874l-.333-.408 1.502-3.157a9.859 9.859 0 0 1-.655-1.58l-3.299-1.173-.053-.522a12.892 12.892 0 0 1 0-2.65l.053-.523 3.299-1.173a9.905 9.905 0 0 1 .655-1.579L42.16 34.11l.333-.41a13.068 13.068 0 0 1 1.882-1.874l.408-.332 3.16 1.504a9.848 9.848 0 0 1 1.564-.644l1.173-3.296.525-.054a13.2 13.2 0 0 1 2.617 0l.525.054 1.173 3.296c.542.17 1.063.385 1.563.642l3.16-1.502.409.332a13.043 13.043 0 0 1 1.878 1.873l.335.409-1.5 3.156c.263.507.482 1.036.653 1.579l3.302 1.173.052.527a13.315 13.315 0 0 1 0 2.643l-.052.525-3.302 1.174a9.889 9.889 0 0 1-.653 1.58l1.5 3.156-.335.409a13.215 13.215 0 0 1-1.878 1.873l-.409.331-3.16-1.501c-.5.255-1.021.47-1.563.642l-1.173 3.296-.525.054c-.43.043-.867.065-1.308.065z"/>
        <path fill="#391572" d="M52.515 39.075a2.791 2.791 0 0 0-2.789 2.788 2.791 2.791 0 0 0 2.789 2.789 2.791 2.791 0 0 0 2.786-2.789 2.791 2.791 0 0 0-2.786-2.788m0 7.243a4.46 4.46 0 0 1-4.455-4.455 4.46 4.46 0 0 1 4.455-4.455 4.458 4.458 0 0 1 4.453 4.455 4.46 4.46 0 0 1-4.453 4.455"/>
    </g>
</svg>
