<svg xmlns="http://www.w3.org/2000/svg" width="32" height="32" viewBox="0 0 32 32">
    <g fill="none" fill-rule="evenodd">
        <path fill="#86E4CE" d="M16 0C7.163 0 0 7.163 0 16c0 8.836 7.163 16 16 16s16-7.164 16-16c0-8.837-7.163-16-16-16z"/>
        <path fill="#391572" d="M24 23.985h-3.315v-5.188c0-1.237-.022-2.828-1.723-2.828-1.725 0-1.988 1.348-1.988 2.74v5.276h-3.312V13.317h3.178v1.459h.046c.442-.839 1.524-1.724 3.137-1.724 3.357 0 3.977 2.209 3.977 5.082v5.851zM9.924 11.86a1.923 1.923 0 1 1-.003-3.845 1.923 1.923 0 0 1 .003 3.845zM11.582 23.985H8.263V13.317h3.319z"/>
    </g>
</svg>
