<svg xmlns="http://www.w3.org/2000/svg" width="45" height="45" viewBox="0 0 45 45">
    <path fill="#007BB6" fill-rule="evenodd" d="M33.75 33.729h-4.662v-7.296c0-1.74-.03-3.977-2.423-3.977-2.425 0-2.795 1.896-2.795 3.854v7.419h-4.658V18.727h4.47v2.052h.064c.622-1.18 2.143-2.425 4.411-2.425 4.721 0 5.593 3.107 5.593 7.147v8.228zm-19.794-17.05a2.704 2.704 0 1 1-.004-5.408 2.704 2.704 0 0 1 .004 5.407zm2.331 17.05H11.62V18.727h4.667v15.002zM22.5 0C10.073 0 0 10.073 0 22.5 0 34.926 10.073 45 22.5 45S45 34.926 45 22.5C45 10.073 34.927 0 22.5 0z"/>
</svg>
