<svg xmlns="http://www.w3.org/2000/svg" width="72" height="45" viewBox="0 0 72 45">
    <path fill="#86E4CE" fill-rule="evenodd" d="M59.444 44.778c-7.916 1.3-16.423-3.072-18.55-14.06C38.886 15.005 50.346 1.89 67.478 0c.59 0 .708.473.708.473l.827 4.844s0 .59-.472.709c-4.962 1.535-9.097 3.898-10.752 10.042 6.735.355 12.524 5.317 13.706 12.287 1.3 7.916-4.136 15.242-12.051 16.423m-40.761 0C10.767 46.078 2.26 41.706.25 30.718-1.875 15.005 9.703 1.89 26.835 0c.59 0 .709.473.709.473l.827 4.844s0 .59-.473.709c-4.962 1.535-9.097 3.898-10.633 10.042 6.734.355 12.523 5.317 13.705 12.287.945 7.916-4.372 15.242-12.287 16.423"/>
</svg>
