<svg xmlns="http://www.w3.org/2000/svg" width="45" height="45" viewBox="0 0 45 45">
    <path fill="#00ACED" fill-rule="evenodd" d="M31.447 17.911c.008.199.014.397.014.598 0 6.099-4.644 13.133-13.135 13.133a13.07 13.07 0 0 1-7.076-2.073 9.49 9.49 0 0 0 1.101.064 9.26 9.26 0 0 0 5.733-1.976 4.62 4.62 0 0 1-4.313-3.205 4.657 4.657 0 0 0 2.086-.08 4.617 4.617 0 0 1-3.703-4.526v-.059a4.594 4.594 0 0 0 2.091.578 4.616 4.616 0 0 1-1.428-6.163 13.107 13.107 0 0 0 9.514 4.823 4.617 4.617 0 0 1 7.865-4.21 9.237 9.237 0 0 0 2.932-1.12A4.639 4.639 0 0 1 31.1 16.25a9.263 9.263 0 0 0 2.651-.727 9.397 9.397 0 0 1-2.303 2.39M22.5 0C10.073 0 0 10.073 0 22.5 0 34.926 10.073 45 22.5 45S45 34.926 45 22.5C45 10.073 34.927 0 22.5 0"/>
</svg>
