<svg xmlns="http://www.w3.org/2000/svg" xmlns:xlink="http://www.w3.org/1999/xlink" width="120" height="120" viewBox="0 0 120 120">
    <defs>
        <path id="a" d="M0 1.026h59.438v46.16H0z"/>
        <path id="c" d="M0 60.974h59.438V1.632H0z"/>
    </defs>
    <g fill="none" fill-rule="evenodd">
        <circle cx="60" cy="60" r="60" fill="#E7FAF5"/>
        <g transform="translate(32 35)">
            <path fill="#391572" d="M26.057 47.64a2.752 2.752 0 0 1 2.6 1.836c.248.694.876.748 1.062.748.187 0 .816-.054 1.062-.75a2.768 2.768 0 0 1 1.543-1.624c.72-.3 1.537-.28 2.24.057.67.311 1.15-.092 1.283-.222.132-.132.538-.615.222-1.28a2.759 2.759 0 0 1 1.568-3.784c.695-.25.749-.877.749-1.066 0-.186-.056-.814-.75-1.06a2.767 2.767 0 0 1-1.626-1.546 2.765 2.765 0 0 1 .059-2.238c.316-.667-.09-1.149-.222-1.28-.132-.135-.615-.538-1.28-.223a2.766 2.766 0 0 1-2.243.057 2.77 2.77 0 0 1-1.543-1.625c-.246-.696-.875-.75-1.062-.75-.186 0-.814.054-1.062.75a2.762 2.762 0 0 1-3.784 1.57c-.669-.32-1.149.086-1.28.22-.133.13-.54.614-.223 1.28.335.702.356 1.52.059 2.24a2.769 2.769 0 0 1-1.625 1.544c-.697.247-.75.875-.75 1.061 0 .19.052.816.748 1.065.735.26 1.327.824 1.625 1.542a2.766 2.766 0 0 1-.057 2.242c-.316.666.09 1.149.222 1.28.132.133.615.534 1.28.223.373-.178.78-.268 1.185-.268m3.662 4.216a2.73 2.73 0 0 1-2.6-1.834 1.11 1.11 0 0 0-.63-.664c-.3-.125-.622-.12-.916.023a2.725 2.725 0 0 1-3.134-.542 2.73 2.73 0 0 1-.542-3.136c.139-.29.147-.615.023-.915a1.118 1.118 0 0 0-.664-.631 2.729 2.729 0 0 1-1.834-2.601c0-1.181.72-2.201 1.834-2.596a1.12 1.12 0 0 0 .664-.633 1.113 1.113 0 0 0-.023-.915 2.73 2.73 0 0 1 .542-3.136 2.716 2.716 0 0 1 3.134-.539c.292.138.617.146.917.022.298-.124.522-.36.63-.663a2.73 2.73 0 0 1 2.599-1.837 2.73 2.73 0 0 1 2.6 1.837c.108.304.333.539.63.663.299.125.625.114.917-.022a2.715 2.715 0 0 1 3.134.54 2.727 2.727 0 0 1 .542 3.135 1.128 1.128 0 0 0 .641 1.548 2.727 2.727 0 0 1 1.834 2.596 2.73 2.73 0 0 1-1.834 2.6 1.125 1.125 0 0 0-.64 1.547c.507 1.07.294 2.301-.54 3.136a2.728 2.728 0 0 1-3.138.54 1.106 1.106 0 0 0-.916-.02 1.112 1.112 0 0 0-.63.662 2.73 2.73 0 0 1-2.6 1.835"/>
            <path fill="#391572" d="M29.719 38.522a3.038 3.038 0 0 0-3.035 3.035 3.039 3.039 0 0 0 3.035 3.036 3.04 3.04 0 0 0 3.036-3.036 3.04 3.04 0 0 0-3.036-3.035m0 7.703a4.672 4.672 0 0 1-4.666-4.668 4.672 4.672 0 0 1 4.666-4.667 4.672 4.672 0 0 1 4.668 4.667 4.672 4.672 0 0 1-4.668 4.668M25.362 60.974V48.46h1.631v9.597l2.725-1.672 2.727 1.672v-9.597h1.631v12.511l-4.358-2.67z"/>
            <g transform="translate(0 .605)">
                <mask id="b" fill="#fff">
                    <use xlink:href="#a"/>
                </mask>
                <path fill="#391572" d="M59.439 47.187h-19.54v-1.632h17.908V2.658H1.632v42.897h17.765v1.632H0V1.027H59.44z" mask="url(#b)"/>
            </g>
            <path fill="#391572" d="M54.814 15.452h-1.632v-3.415h-4.15v-4.15h-3.5V6.255h5.131v4.15h4.151zM50.663 43.167h-6.431v-1.632h4.8v-4.15h4.15v-3.199h1.632v4.83h-4.15zM14.135 43.167h-5.36v-4.151H4.624V33.91h1.632v3.473h4.152v4.151h3.728zM6.255 15.175H4.624v-4.77h4.15v-4.15h4.398v1.632h-2.766v4.15h-4.15z"/>
            <mask id="d" fill="#fff">
                <use xlink:href="#c"/>
            </mask>
            <path fill="#391572" d="M4.624 7.887h1.97V6.256h-1.97zM52.844 7.887h1.97V6.256h-1.97zM4.624 43.167h1.97v-1.632h-1.97zM52.844 43.167h1.97v-1.632h-1.97zM20.992 18.125h16.384v-1.631H20.992zM13.28 22.457h31.807v-1.631H13.28zM17.09 26.787h24.184v-1.631H17.091z" mask="url(#d)"/>
        </g>
    </g>
</svg>
