<svg xmlns="http://www.w3.org/2000/svg" xmlns:xlink="http://www.w3.org/1999/xlink" width="120" height="120" viewBox="0 0 120 120">
    <defs>
        <path id="a" d="M0 1.066h14.446v7.133H0z"/>
        <path id="c" d="M0 60.528h50.149V0H0z"/>
    </defs>
    <g fill="none" fill-rule="evenodd">
        <circle cx="60" cy="60" r="60" fill="#E7FAF5"/>
        <g transform="translate(34 29)">
            <path fill="#391572" d="M1.55 48.498h47.049V15.894c0-.696-.566-1.262-1.262-1.262H2.81c-.694 0-1.26.566-1.26 1.262v32.604zm48.599 1.55H0V15.894a2.815 2.815 0 0 1 2.81-2.812h44.527a2.815 2.815 0 0 1 2.812 2.812v34.154z"/>
            <path fill="#391572" d="M43.717 31.527h-8.015v-1.55h8.015a4.886 4.886 0 0 0 4.881-4.881v-.702h1.55v.702a6.438 6.438 0 0 1-6.43 6.43"/>
            <g transform="translate(0 23.328)">
                <mask id="b" fill="#fff">
                    <use xlink:href="#a"/>
                </mask>
                <path fill="#391572" d="M14.446 8.199H6.43A6.439 6.439 0 0 1 0 1.768v-.702h1.55v.702c0 2.69 2.19 4.88 4.88 4.88h8.016v1.55z" mask="url(#b)"/>
            </g>
            <mask id="d" fill="#fff">
                <use xlink:href="#c"/>
            </mask>
            <path fill="#391572" d="M19.561 31.527h11.027v-1.55H19.56z" mask="url(#d)"/>
            <path fill="#391572" d="M15.221 32.86h3.565v-4.217h-3.565v4.217zm-1.55 1.55h6.665v-7.317h-6.665v7.317zM31.363 32.86h3.565v-4.217h-3.565v4.217zm-1.55 1.55h6.665v-7.317h-6.665v7.317zM32.626 12.133h-1.55v-1.826c0-.794-.646-1.44-1.441-1.44h-9.151c-.795 0-1.442.646-1.442 1.44v1.826h-1.55v-1.826c0-1.65 1.343-2.99 2.992-2.99h9.15c1.65 0 2.992 1.34 2.992 2.99v1.826zM45.14 49.762l-1.096-1.096 4.782-4.782 1.096 1.098zM5.009 49.762l-4.782-4.78 1.096-1.098 4.782 4.782zM40.483 54.514l.651-.434.636-.434.868 1.286-1.287.868-.868-1.286zM10.708 56.9l-.682-.371.728-1.365 1.364.744-.728 1.364-.682-.371zm26.737-.712l1.38-.698.713 1.38-1.38.697-.713-1.38zm-23.42 2.262l-.729-.294.574-1.441 1.441.573-.573 1.442-.713-.28zm20.212-.96l1.457-.528.527 1.457-.729.264-.728.264-.527-1.458zm-16.74 2.076l-.744-.186.387-1.503 1.504.387-.388 1.504-.76-.202zm13.392-1.162l1.503-.357.357 1.504-1.52.356-.34-1.503zm-9.796 1.86l-.775-.093.201-1.55 1.535.217-.202 1.535-.76-.109zm6.355-1.38l1.55-.154.155 1.534-.76.093-.775.078-.17-1.55zm-2.713 1.644l-.775-.016.016-1.55.775.015h.775l-.016 1.55h-.775zM25.386 1.55h-.775L24.64 0l1.55.015-.03 1.55-.775-.015zM20.984.264l1.55-.171.17 1.55-1.55.17-.17-1.55zm7.874 1.534l-.775-.093.201-1.55.775.109.76.108-.202 1.534-.76-.108zM17.403.976L18.907.62l.356 1.503-1.503.357-.357-1.503zm14.85 1.489h.015l-.76-.202.388-1.503.744.201.76.186-.388 1.504-.76-.186zM13.93 2.107l1.442-.527.542 1.457-1.457.527-.527-1.457zm21.623 1.426l-.713-.294.573-1.442 1.442.574-.574 1.441-.728-.279zm-24.94.124l.682-.341.698-.357.697 1.38-1.38.697-.697-1.379zM38.7 4.991l-.682-.372.744-1.364 1.364.744-.744 1.364-.682-.372zm-31.186.62l1.287-.868.868 1.286-1.287.869-.868-1.287z" mask="url(#d)"/>
        </g>
    </g>
</svg>
