<svg xmlns="http://www.w3.org/2000/svg" xmlns:xlink="http://www.w3.org/1999/xlink" width="120" height="120" viewBox="0 0 120 120">
    <defs>
        <path id="a" d="M0 .772h46.253v45.38H0z"/>
        <path id="c" d="M0 60.45h50.325V.772H0z"/>
    </defs>
    <g fill="none" fill-rule="evenodd">
        <circle cx="60" cy="60" r="60" fill="#E7FAF5"/>
        <path fill="#391572" d="M40.774 75.93h8.991v-1.55h-8.991z"/>
        <g transform="translate(35 29.778)">
            <mask id="b" fill="#fff">
                <use xlink:href="#a"/>
            </mask>
            <path fill="#391572" d="M21.545 23.379h23.158v-7.226a4.229 4.229 0 0 0-4.223-4.224H19.705a5.77 5.77 0 0 1 1.84 4.224v7.226zM5.774 46.15A5.78 5.78 0 0 1 0 40.38V.772l3.735 1.956 2.96-1.55 2.961 1.55 2.96-1.55 2.96 1.55 2.96-1.55 2.96 1.55L25.233.772v8.593h-1.55V3.332l-2.185 1.146-2.96-1.55-2.961 1.55-2.96-1.55-2.96 1.55-2.96-1.55-2.96 1.55L1.55 3.333v37.046a4.228 4.228 0 0 0 4.224 4.222 4.227 4.227 0 0 0 4.223-4.222V16.153a5.78 5.78 0 0 1 5.774-5.774H40.48a5.78 5.78 0 0 1 5.773 5.774v8.776H19.995v-8.776a4.229 4.229 0 0 0-4.224-4.224 4.23 4.23 0 0 0-4.224 4.224v24.226a5.78 5.78 0 0 1-5.773 5.772z" mask="url(#b)"/>
            <path fill="#391572" d="M50.325 60.45H15.783V19.676h3.19v1.55h-1.64V58.9h31.442V21.226h-1.421v-1.55h2.971z"/>
            <mask id="d" fill="#fff">
                <use xlink:href="#c"/>
            </mask>
            <path fill="#391572" d="M25.108 34.901h15.893V29.9H25.108v5.002zm-1.55 1.55h18.993V28.35H23.558v8.102zM23.558 40.663h4.495v-1.55h-4.495zM30.806 40.663h4.497v-1.55h-4.497zM38.056 40.663h4.495v-1.55h-4.495zM23.558 44.876h4.495v-1.55h-4.495zM30.806 44.876h4.497v-1.55h-4.497zM38.056 44.876h4.495v-1.55h-4.495zM23.558 49.089h4.495v-1.55h-4.495zM30.806 49.089h4.497v-1.55h-4.497zM38.056 49.089h4.495v-1.55h-4.495zM23.558 53.301h4.495v-1.55h-4.495zM30.806 53.301h4.497v-1.55h-4.497zM38.056 53.301h4.495v-1.55h-4.495z" mask="url(#d)"/>
        </g>
    </g>
</svg>
