<svg xmlns="http://www.w3.org/2000/svg" width="120" height="120" viewBox="0 0 120 120">
    <g fill="none" fill-rule="evenodd">
        <circle cx="60" cy="60" r="60" fill="#E7FAF5"/>
        <g fill="#391572">
            <path d="M70.336 61.714h12.469V43.7H70.336v18.015zm13.24 1.546H69.564a.771.771 0 0 1-.773-.773V42.926c0-.427.344-.773.773-.773h14.012c.428 0 .773.346.773.773v19.56a.771.771 0 0 1-.773.774z"/>
            <path d="M70.05 63.26c-1.17 0-2.122.952-2.122 2.124v1.361c0 1.17.952 2.124 2.122 2.124h13.04c1.17 0 2.124-.954 2.124-2.124v-1.361a2.126 2.126 0 0 0-2.124-2.124H70.05zm13.04 7.154H70.05a3.672 3.672 0 0 1-3.668-3.669v-1.361a3.672 3.672 0 0 1 3.668-3.67h13.04a3.673 3.673 0 0 1 3.669 3.67v1.361a3.673 3.673 0 0 1-3.669 3.67zM70.05 36.545c-1.17 0-2.122.952-2.122 2.124v1.361c0 1.172.952 2.124 2.122 2.124h13.04c1.17 0 2.124-.952 2.124-2.124V38.67a2.126 2.126 0 0 0-2.124-2.124H70.05zM83.09 43.7H70.05a3.672 3.672 0 0 1-3.668-3.669V38.67A3.672 3.672 0 0 1 70.05 35h13.04a3.673 3.673 0 0 1 3.669 3.669v1.361a3.673 3.673 0 0 1-3.669 3.67zM66.759 54.772l2.03 1.14v-6.411l-2.03 1.14v4.131zm2.803 3.233a.78.78 0 0 1-.377-.098l-3.578-2.008a.773.773 0 0 1-.394-.674V50.19c0-.279.152-.537.394-.674l3.578-2.008a.774.774 0 0 1 1.15.674v9.052a.77.77 0 0 1-.773.772zM79.958 60.243h1.546V50.23h-1.546zM77.232 60.243h1.546V50.23h-1.546zM29 84.9h62.619v-1.545H29z"/>
            <path d="M71.089 70.413h1.545v-3.38H71.09zM75.796 70.413h1.546v-3.38h-1.546zM80.505 70.413h1.546v-3.38h-1.546zM71.089 38.38h1.545V35H71.09zM75.796 38.38h1.546V35h-1.546zM80.505 38.38h1.546V35h-1.546zM39.154 54.452h26.06V50.93H39.142a5.203 5.203 0 0 1 .012 3.522m26.832 1.546H37.9a.773.773 0 0 1-.638-1.21 3.659 3.659 0 0 0-.02-4.187.77.77 0 0 1 .632-1.216h28.113c.427 0 .773.345.773.773v5.067a.773.773 0 0 1-.773.773"/>
            <path d="M34.227 49.025a3.687 3.687 0 0 0-3.681 3.682 3.686 3.686 0 0 0 3.681 3.682 3.687 3.687 0 0 0 3.683-3.682 3.687 3.687 0 0 0-3.683-3.682m0 8.91A5.232 5.232 0 0 1 29 52.706a5.234 5.234 0 0 1 5.227-5.228 5.235 5.235 0 0 1 5.228 5.228 5.234 5.234 0 0 1-5.228 5.227M60.83 55.997h1.546v-6.613H60.83zM57.129 55.997h1.545v-6.613H57.13zM62.876 83.355h27.197v-3.493H62.876v3.493zm-1.545 1.546h30.288v-6.584H61.33V84.9z"/>
            <path d="M66.978 78.317h18.994V76.26H66.978v2.056zm-1.545 1.545h22.084v-5.146H65.433v5.146z"/>
        </g>
    </g>
</svg>
